<?xml version="1.0" encoding="UTF-8"?>
<svg version="1.1" xmlns="http://www.w3.org/2000/svg" width="500" height="500">
<path d="M0 0 C7.23508484 5.78806787 13.46046665 14.23529923 14.92578125 23.515625 C16.41969865 39.73529964 9.86590647 50.05410608 -0.0625 62.1640625 C-0.60011963 62.82116211 -1.13773926 63.47826172 -1.69165039 64.15527344 C-2.72097359 65.40702404 -3.75703858 66.65328954 -4.80249023 67.89160156 C-16.04235274 81.42156151 -25.51605656 96.50406539 -35.32421875 111.078125 C-36.47378985 112.78331672 -37.62352873 114.48839535 -38.7734375 116.19335938 C-41.54228927 120.29948759 -44.30890514 124.40711323 -47.07421875 128.515625 C-44.08233887 127.81844794 -41.87216254 126.94958772 -39.2578125 125.3203125 C-38.50749756 124.85939209 -37.75718262 124.39847168 -36.98413086 123.92358398 C-36.16823486 123.41770752 -35.35233887 122.91183105 -34.51171875 122.390625 C-25.15368504 116.6771983 -15.62431144 111.3207385 -6.02197266 106.03051758 C0.74296714 102.29851779 7.45115595 98.49021916 14.11328125 94.578125 C35.67208231 82.03886917 55.61296755 74.32016255 80.75 80.61303711 C95.87792688 84.82478948 109.98372015 93.52234909 118.5234375 106.96875 C124.11173532 117.11797056 125.83507681 127.27550734 123.18359375 138.71875 C118.39793625 152.06270011 107.8026403 160.32561748 95.99853516 167.2890625 C92.04790128 169.62686987 88.14529422 172.04336405 84.23828125 174.453125 C83.36196045 174.99259766 82.48563965 175.53207031 81.58276367 176.08789062 C56.92717459 191.36261614 32.98406004 207.93207721 9.92578125 225.515625 C21.02948064 224.27991028 31.91951627 222.50164721 42.86328125 220.265625 C44.39459522 219.95816524 45.92592686 219.65079346 47.45727539 219.34350586 C57.63060487 217.28350466 67.7373387 215.00752966 77.75952148 212.29394531 C92.5250721 208.47993649 108.18615352 210.62011928 121.61328125 217.96875 C130.31020362 223.78628591 136.98939963 230.36166672 139.92578125 240.515625 C140.84811339 248.96676131 139.97744638 256.03165757 135.92578125 263.515625 C135.58289063 264.20140625 135.24 264.8871875 134.88671875 265.59375 C124.30328321 282.93692825 91.03249115 290.98186408 72.99609375 298.85546875 C9.21457727 324.90252119 9.21457727 324.90252119 -47.56445312 362.82617188 C-87.05889759 397.55650965 -140.28083056 423.66143717 -194.07421875 420.515625 C-206.13501055 419.65047398 -218.1325276 418.43118638 -230.07421875 416.515625 C-230.43773437 417.03511719 -230.80125 417.55460937 -231.17578125 418.08984375 C-236.04401988 424.84296452 -240.87358217 429.96008705 -249.07421875 432.515625 C-252.08566192 432.97277206 -255.03147552 433.04016826 -258.07421875 433.015625 C-258.9058252 433.00990479 -259.73743164 433.00418457 -260.59423828 432.99829102 C-277.39691569 432.52055837 -292.73229764 424.37099071 -304.63671875 412.84765625 C-307.03820573 410.48056449 -307.03820573 410.48056449 -309.69140625 408.42578125 C-332.85897663 389.85374532 -356.26215368 350.88894785 -360.07421875 321.515625 C-361.37084896 306.88171238 -359.31521329 292.44568492 -350.07421875 280.515625 C-345.29643227 275.27319121 -339.85611254 271.66924413 -333.07421875 269.515625 C-332.08421875 269.515625 -331.09421875 269.515625 -330.07421875 269.515625 C-330.0887207 268.94166992 -330.10322266 268.36771484 -330.11816406 267.77636719 C-330.21637659 260.69664704 -329.61383075 253.79626632 -328.82421875 246.765625 C-328.69289551 245.55986816 -328.56157227 244.35411133 -328.42626953 243.11181641 C-327.4131083 234.01679098 -326.20058567 224.95543289 -324.94921875 215.890625 C-323.27427928 203.5759462 -323.27427928 203.5759462 -322.13671875 191.203125 C-321.99943359 189.25986328 -321.99943359 189.25986328 -321.859375 187.27734375 C-322.36308804 178.45778631 -326.67919668 171.0870721 -330.69921875 163.390625 C-341.13753423 142.90552994 -351.33797721 120.75015322 -351.63671875 97.390625 C-351.65162354 96.53774902 -351.66652832 95.68487305 -351.68188477 94.80615234 C-351.54192433 86.37374301 -348.51691295 79.18568448 -342.7421875 73.01171875 C-332.01950682 63.3939513 -311.85918588 62.77155007 -298.07421875 63.515625 C-278.35622438 65.17459087 -262.05671669 72.41762568 -249.07421875 87.515625 C-232.00203487 109.7956872 -229.68891543 137.56982585 -227.07421875 164.515625 C-219.30064786 158.34661884 -211.97279115 151.83956287 -204.73583984 145.05957031 C-203.09760985 143.53735954 -201.44307547 142.0354462 -199.78125 140.5390625 C-192.65130947 134.09915052 -186.05032241 127.34661656 -179.61865234 120.21289062 C-178.01284595 118.44817895 -176.38532009 116.70612926 -174.75 114.96875 C-169.06377023 108.9255335 -163.56561303 102.82880561 -158.375 96.34765625 C-155.71512059 93.07361114 -152.9616519 89.89051413 -150.19921875 86.703125 C-144.78748344 80.42998554 -139.63136958 73.98899321 -134.56201172 67.4375 C-132.96705738 65.37719797 -131.36682522 63.32107625 -129.765625 61.265625 C-124.96484438 55.10110132 -120.17006347 48.93197092 -115.38671875 42.75390625 C-102.46504662 26.07609495 -102.46504662 26.07609495 -96.07421875 18.515625 C-95.34976562 17.65582031 -94.6253125 16.79601562 -93.87890625 15.91015625 C-70.1629557 -11.40037217 -31.01502816 -22.19531206 0 0 Z " fill="#FEFEFE" transform="translate(360.07421875,39.484375)"/>
<path d="M0 0 C7.23508484 5.78806787 13.46046665 14.23529923 14.92578125 23.515625 C16.41969865 39.73529964 9.86590647 50.05410608 -0.0625 62.1640625 C-0.60011963 62.82116211 -1.13773926 63.47826172 -1.69165039 64.15527344 C-2.72097359 65.40702404 -3.75703858 66.65328954 -4.80249023 67.89160156 C-16.04235274 81.42156151 -25.51605656 96.50406539 -35.32421875 111.078125 C-36.47378985 112.78331672 -37.62352873 114.48839535 -38.7734375 116.19335938 C-41.54228927 120.29948759 -44.30890514 124.40711323 -47.07421875 128.515625 C-44.08233887 127.81844794 -41.87216254 126.94958772 -39.2578125 125.3203125 C-38.50749756 124.85939209 -37.75718262 124.39847168 -36.98413086 123.92358398 C-36.16823486 123.41770752 -35.35233887 122.91183105 -34.51171875 122.390625 C-25.15368504 116.6771983 -15.62431144 111.3207385 -6.02197266 106.03051758 C0.74296714 102.29851779 7.45115595 98.49021916 14.11328125 94.578125 C35.67208231 82.03886917 55.61296755 74.32016255 80.75 80.61303711 C95.87792688 84.82478948 109.98372015 93.52234909 118.5234375 106.96875 C124.11173532 117.11797056 125.83507681 127.27550734 123.18359375 138.71875 C118.39793625 152.06270011 107.8026403 160.32561748 95.99853516 167.2890625 C92.04790128 169.62686987 88.14529422 172.04336405 84.23828125 174.453125 C83.36196045 174.99259766 82.48563965 175.53207031 81.58276367 176.08789062 C56.92717459 191.36261614 32.98406004 207.93207721 9.92578125 225.515625 C21.02948064 224.27991028 31.91951627 222.50164721 42.86328125 220.265625 C44.39459522 219.95816524 45.92592686 219.65079346 47.45727539 219.34350586 C57.63060487 217.28350466 67.7373387 215.00752966 77.75952148 212.29394531 C92.5250721 208.47993649 108.18615352 210.62011928 121.61328125 217.96875 C130.31020362 223.78628591 136.98939963 230.36166672 139.92578125 240.515625 C140.84811339 248.96676131 139.97744638 256.03165757 135.92578125 263.515625 C135.58289063 264.20140625 135.24 264.8871875 134.88671875 265.59375 C124.30328321 282.93692825 91.03249115 290.98186408 72.99609375 298.85546875 C9.21457727 324.90252119 9.21457727 324.90252119 -47.56445312 362.82617188 C-87.05889759 397.55650965 -140.28083056 423.66143717 -194.07421875 420.515625 C-206.13501055 419.65047398 -218.1325276 418.43118638 -230.07421875 416.515625 C-230.43773437 417.03511719 -230.80125 417.55460937 -231.17578125 418.08984375 C-236.04401988 424.84296452 -240.87358217 429.96008705 -249.07421875 432.515625 C-252.08566192 432.97277206 -255.03147552 433.04016826 -258.07421875 433.015625 C-258.9058252 433.00990479 -259.73743164 433.00418457 -260.59423828 432.99829102 C-277.39691569 432.52055837 -292.73229764 424.37099071 -304.63671875 412.84765625 C-307.03820573 410.48056449 -307.03820573 410.48056449 -309.69140625 408.42578125 C-332.85897663 389.85374532 -356.26215368 350.88894785 -360.07421875 321.515625 C-361.37084896 306.88171238 -359.31521329 292.44568492 -350.07421875 280.515625 C-345.29643227 275.27319121 -339.85611254 271.66924413 -333.07421875 269.515625 C-332.08421875 269.515625 -331.09421875 269.515625 -330.07421875 269.515625 C-330.0887207 268.94166992 -330.10322266 268.36771484 -330.11816406 267.77636719 C-330.21637659 260.69664704 -329.61383075 253.79626632 -328.82421875 246.765625 C-328.69289551 245.55986816 -328.56157227 244.35411133 -328.42626953 243.11181641 C-327.4131083 234.01679098 -326.20058567 224.95543289 -324.94921875 215.890625 C-323.27427928 203.5759462 -323.27427928 203.5759462 -322.13671875 191.203125 C-321.99943359 189.25986328 -321.99943359 189.25986328 -321.859375 187.27734375 C-322.36308804 178.45778631 -326.67919668 171.0870721 -330.69921875 163.390625 C-341.13753423 142.90552994 -351.33797721 120.75015322 -351.63671875 97.390625 C-351.65162354 96.53774902 -351.66652832 95.68487305 -351.68188477 94.80615234 C-351.54192433 86.37374301 -348.51691295 79.18568448 -342.7421875 73.01171875 C-332.01950682 63.3939513 -311.85918588 62.77155007 -298.07421875 63.515625 C-278.35622438 65.17459087 -262.05671669 72.41762568 -249.07421875 87.515625 C-232.00203487 109.7956872 -229.68891543 137.56982585 -227.07421875 164.515625 C-219.30064786 158.34661884 -211.97279115 151.83956287 -204.73583984 145.05957031 C-203.09760985 143.53735954 -201.44307547 142.0354462 -199.78125 140.5390625 C-192.65130947 134.09915052 -186.05032241 127.34661656 -179.61865234 120.21289062 C-178.01284595 118.44817895 -176.38532009 116.70612926 -174.75 114.96875 C-169.06377023 108.9255335 -163.56561303 102.82880561 -158.375 96.34765625 C-155.71512059 93.07361114 -152.9616519 89.89051413 -150.19921875 86.703125 C-144.78748344 80.42998554 -139.63136958 73.98899321 -134.56201172 67.4375 C-132.96705738 65.37719797 -131.36682522 63.32107625 -129.765625 61.265625 C-124.96484438 55.10110132 -120.17006347 48.93197092 -115.38671875 42.75390625 C-102.46504662 26.07609495 -102.46504662 26.07609495 -96.07421875 18.515625 C-95.34976562 17.65582031 -94.6253125 16.79601562 -93.87890625 15.91015625 C-70.1629557 -11.40037217 -31.01502816 -22.19531206 0 0 Z M-85.82421875 27.77734375 C-88.17233599 30.71864321 -90.44868275 33.71223487 -92.71240234 36.71875 C-94.8961232 39.60010272 -97.14418518 42.42998419 -99.38671875 45.265625 C-102.41396499 49.11045665 -105.42669765 52.96606234 -108.421875 56.8359375 C-115.23751719 65.63951494 -122.13885 74.35829611 -129.1875 82.9765625 C-131.53177885 85.84305542 -133.8413511 88.73473688 -136.13671875 91.640625 C-140.76957655 97.44869411 -145.63764351 103.05232725 -150.4921875 108.67480469 C-152.080651 110.52310944 -153.65716668 112.38096725 -155.23046875 114.2421875 C-160.06926647 119.95586898 -164.91519893 125.52559352 -170.296875 130.7421875 C-172.07289306 132.51430223 -173.69856678 134.35538647 -175.32421875 136.265625 C-181.96210397 143.96678703 -189.29479007 151.17438584 -197.0390625 157.7578125 C-199.48249913 159.8682664 -201.83340696 162.06855379 -204.19921875 164.265625 C-210.06025139 169.61310402 -216.23227683 174.49194606 -222.52929688 179.31298828 C-223.87483648 180.36041687 -225.18857393 181.44844813 -226.49609375 182.54296875 C-229.876356 185.32709948 -231.49038499 186.44029161 -235.94921875 187.015625 C-239.07421875 186.515625 -239.07421875 186.515625 -241.07421875 184.515625 C-241.34545898 182.20678711 -241.34545898 182.20678711 -241.3828125 179.29296875 C-241.41725464 177.6672998 -241.41725464 177.6672998 -241.45239258 176.00878906 C-241.47197021 174.83541992 -241.49154785 173.66205078 -241.51171875 172.453125 C-242.28060438 144.45895335 -244.24464932 112.91826828 -264.87109375 91.6640625 C-275.72164247 81.46454671 -289.29579912 77.93779317 -303.88671875 78.140625 C-304.93190674 78.14932617 -305.97709473 78.15802734 -307.05395508 78.16699219 C-322.25609674 78.32665461 -322.25609674 78.32665461 -335.07421875 85.515625 C-340.01673331 94.55681016 -337.24816823 106.35205491 -334.57421875 115.703125 C-329.33637324 133.03634053 -321.99201368 149.15290518 -313.734375 165.22485352 C-313.1465625 166.37268311 -312.55875 167.5205127 -311.953125 168.703125 C-311.42275635 169.72792969 -310.8923877 170.75273437 -310.34594727 171.80859375 C-303.17434671 187.07423148 -309.24036502 209.64157039 -311.51171875 225.515625 C-312.00425727 229.03777209 -312.49291196 232.56042215 -312.97877502 236.08349609 C-313.27907342 238.25244119 -313.58369166 240.42079484 -313.8936615 242.58837891 C-319.90701395 285.33231796 -312.33472678 317.68839522 -286.76171875 352.453125 C-268.79930462 376.0058823 -249.54829256 398.38723798 -219.07421875 403.515625 C-218.0795459 403.68626465 -217.08487305 403.8569043 -216.06005859 404.03271484 C-207.054411 405.45936473 -198.17445037 405.91683481 -189.07421875 405.890625 C-187.99788681 405.88980927 -187.99788681 405.88980927 -186.89981079 405.88897705 C-174.29097111 405.84531582 -162.30682307 404.67165132 -150.07421875 401.515625 C-149.23681152 401.30131836 -148.3994043 401.08701172 -147.53662109 400.86621094 C-114.2599128 392.09204145 -85.01818826 376.08403594 -59.13671875 353.515625 C-23.88995973 322.96908126 22.16661777 305.20530842 64.4811554 286.76617432 C97.808913 275.47153493 97.808913 275.47153493 124.16796875 255.5234375 C125.66877027 251.05808976 126.68840989 247.26086986 125.92578125 242.515625 C121.43040208 234.19439122 114.15275665 229.21737393 105.3359375 226.24609375 C101.06134194 225.33045873 96.97624803 225.07711823 92.61328125 225.015625 C91.86788086 224.99717529 91.12248047 224.97872559 90.35449219 224.9597168 C84.17915455 225.02615364 78.78354538 226.61349804 72.8996582 228.39257812 C65.28989481 230.62058687 57.44943078 231.98939982 49.67578125 233.515625 C48.80159546 233.68893341 47.92740967 233.86224182 47.0267334 234.040802 C11.09547654 241.15354533 11.09547654 241.15354533 -6.32592773 242.14428711 C-13.79128934 243.15297637 -19.38657876 247.30772301 -24.375 252.703125 C-26.72716233 255.21209816 -29.31478067 257.39787835 -31.91796875 259.640625 C-34.27384833 261.68921594 -36.57929335 263.78765502 -38.88671875 265.890625 C-43.28933972 269.86718588 -47.83466302 273.63147534 -52.4453125 277.36328125 C-56.06572562 280.32739363 -59.58129285 283.40301768 -63.07421875 286.515625 C-49.33743349 260.08272004 -28.76311643 236.79061904 -4.94873047 218.92822266 C-2.96843311 217.43590688 -1.00648563 215.92170796 0.953125 214.40234375 C5.2527707 211.07392633 9.58279269 207.78722422 13.92578125 204.515625 C14.56805664 204.02964844 15.21033203 203.54367188 15.87207031 203.04296875 C37.38301223 186.85739072 60.35697528 172.36932486 83.29150391 158.29541016 C100.04255388 148.5185098 100.04255388 148.5185098 109.92578125 132.515625 C110.89370109 125.08146289 109.54288469 118.99967782 105.0390625 113.00390625 C96.99920935 103.617062 86.23397131 96.06849586 73.92578125 93.515625 C69.90868267 93.23943757 65.88885769 93.23821137 61.86328125 93.203125 C60.78111328 93.17412109 59.69894531 93.14511719 58.58398438 93.11523438 C46.02143731 93.0172661 36.85908629 97.78382059 26.17578125 103.953125 C24.54950806 104.87847046 24.54950806 104.87847046 22.89038086 105.82250977 C20.65081437 107.09716964 18.4130983 108.37508618 16.17724609 109.65625 C12.22452351 111.9166446 8.25603893 114.14820161 4.28637695 116.37866211 C-0.50858192 119.07674166 -5.29148376 121.79595378 -10.07421875 124.515625 C-11.11191406 125.10456543 -12.14960938 125.69350586 -13.21875 126.30029297 C-25.27338697 133.15299697 -37.23760797 140.12697058 -49.01171875 147.453125 C-49.96361084 148.04335449 -50.91550293 148.63358398 -51.89624023 149.24169922 C-66.0245475 158.11722223 -76.7798767 167.43780177 -87.07421875 180.515625 C-87.55665039 181.12696289 -88.03908203 181.73830078 -88.53613281 182.36816406 C-97.21659894 193.41752555 -105.25857182 204.84144944 -113.07421875 216.515625 C-106.14110451 192.26887741 -93.45463891 170.45999951 -78.36157227 150.42773438 C-72.94842582 143.16259505 -68.22934012 135.45178651 -63.40625 127.7890625 C-59.55831946 121.67706908 -55.56105878 115.67594827 -51.52636719 109.68652344 C-49.80255821 107.10950437 -48.09851988 104.51985406 -46.39453125 101.9296875 C-35.45040756 85.32894564 -24.12862605 69.15990089 -11.4230957 53.8515625 C-3.88666074 44.76053207 0.59772482 38.08350486 0.359375 25.7734375 C-0.46162534 19.60484038 -3.46500581 15.73221352 -8.125 11.7734375 C-34.61963877 -7.14458166 -66.54355107 4.35434513 -85.82421875 27.77734375 Z " fill="#0B0B0B" transform="translate(360.07421875,39.484375)"/>
<path d="M0 0 C0.15855469 1.26972656 0.31710938 2.53945313 0.48046875 3.84765625 C5.05072028 38.39943239 23.49528522 68.59479915 47.03125 93.87890625 C48.88009511 95.87081676 50.62786607 97.91909756 52.375 100 C61.04851299 109.86166545 71.01541262 117.00001785 82 124 C83.485 124.99 83.485 124.99 85 126 C83.60415208 129.37329915 82.07634389 131.04232662 79 133 C68.02508494 136.65830502 56.33886815 132.35256764 46.4375 127.4375 C39.76944977 123.59390773 34.46129304 118.34093396 29 113 C28.22914062 112.29101562 27.45828125 111.58203125 26.6640625 110.8515625 C9.14428456 94.34375729 -4.43652977 71.32562071 -13 49 C-13.42611572 47.93845703 -13.42611572 47.93845703 -13.86083984 46.85546875 C-16.04432148 41.00533722 -16.45638304 35.7122391 -16.375 29.5 C-16.39240234 28.17162109 -16.39240234 28.17162109 -16.41015625 26.81640625 C-16.3722398 18.20937097 -14.40696148 10.83821599 -9 4 C-4.78947368 0 -4.78947368 0 0 0 Z " fill="#FCFCFC" transform="translate(31,324)"/>
<path d="M0 0 C2.96649643 2.02970809 3.82492306 3.34346148 4.75 6.8125 C3.01023083 14.20651899 -6.95663711 19.32884459 -12.875 23.625 C-13.70088623 24.22763672 -14.52677246 24.83027344 -15.37768555 25.45117188 C-17.08674937 26.69720488 -18.79695577 27.94167222 -20.50830078 29.18457031 C-22.83557714 30.88020298 -25.15170867 32.58983931 -27.46484375 34.3046875 C-63.91408847 61.18074268 -63.91408847 61.18074268 -73.25 62.4375 C-76 62 -76 62 -77.875 60.9375 C-79.77535026 57.66467456 -79.69062132 55.7042416 -79 52 C-77.50366211 50.52954102 -77.50366211 50.52954102 -75.52734375 49.12890625 C-74.80039307 48.61239502 -74.07344238 48.09588379 -73.32446289 47.5637207 C-69.56315496 45.03340064 -65.73437391 42.62725392 -61.875 40.25 C-53.67549208 35.12847583 -45.78121551 29.73101536 -38 24 C-36.45721122 22.87214961 -34.91423051 21.74456173 -33.37109375 20.6171875 C-31.72619224 19.4119635 -30.0816653 18.20622813 -28.4375 17 C-27.62837158 16.40703125 -26.81924316 15.8140625 -25.9855957 15.203125 C-22.30590516 12.49252039 -18.66160668 9.75904597 -15.109375 6.8828125 C-14.52486572 6.41359375 -13.94035645 5.944375 -13.33813477 5.4609375 C-11.80255283 4.21811775 -10.28150225 2.9574024 -8.76171875 1.6953125 C-5.51956101 -0.29492295 -3.73992718 -0.4812214 0 0 Z " fill="#040404" transform="translate(175,326)"/>
<path d="M0 0 C3.26317023 2.20484475 3.90655512 3.57171097 4.75 7.4375 C4 11 4 11 2.57885742 12.23950195 C-11.72174284 20.64957772 -26.94207016 27.527275 -42.5 33.25 C-44.02838501 33.82379395 -44.02838501 33.82379395 -45.58764648 34.40917969 C-51.629075 36.55176477 -56.58393621 37.68202253 -63 37 C-64.72460938 35.69238281 -64.72460938 35.69238281 -66 34 C-66.64863961 27.94603033 -66.64863961 27.94603033 -64.91796875 25.421875 C-62.17990682 23.39202868 -59.17382579 22.65309718 -55.9375 21.75 C-41.60876747 17.48979595 -28.11591795 11.8504852 -14.859375 4.96533203 C-12.81247423 3.90264221 -10.7649305 2.84190563 -8.7109375 1.79296875 C-8.06688965 1.46192139 -7.4228418 1.13087402 -6.75927734 0.78979492 C-4.29517438 -0.31641838 -2.64458095 -0.58768466 0 0 Z " fill="#050505" transform="translate(184,374)"/>
<path d="M0 0 C2.77734375 0.453125 2.77734375 0.453125 5.15234375 2.078125 C7.29512126 5.20987675 7.28088855 6.70280964 6.77734375 10.453125 C5.06733118 12.71420662 3.50243223 14.47793127 1.4765625 16.41015625 C0.92555374 16.95741867 0.37454498 17.50468109 -0.19316101 18.06852722 C-1.36408751 19.22602191 -2.54218152 20.3763043 -3.72680664 21.51977539 C-5.50441215 23.23594347 -7.26060344 24.97170236 -9.01367188 26.71289062 C-15.05609029 32.67082508 -21.22070427 38.29461246 -27.88867188 43.55126953 C-30.19433954 45.43005103 -32.29981543 47.42204579 -34.41015625 49.515625 C-37.10738763 51.90206429 -38.91093047 52.94293996 -42.53515625 53.140625 C-46.22265625 52.453125 -46.22265625 52.453125 -48.22265625 50.765625 C-49.49840844 47.81544806 -49.96200234 46.63231317 -49.22265625 43.453125 C-45.91641176 39.09935751 -41.45111698 35.79741175 -37.22265625 32.390625 C-32.59842031 28.6595634 -28.19189546 24.75637849 -23.84765625 20.703125 C-23.21545166 20.11442627 -22.58324707 19.52572754 -21.93188477 18.91918945 C-18.73124259 15.90938695 -15.61240033 12.84937965 -12.5859375 9.6640625 C-11.7194458 8.76059082 -11.7194458 8.76059082 -10.83544922 7.83886719 C-9.74610565 6.69396106 -8.67000434 5.53625627 -7.60986328 4.36425781 C-5.08955296 1.71714464 -3.67207363 0.51631581 0 0 Z " fill="#040404" transform="translate(119.22265625,306.546875)"/>
</svg>
