<?xml version="1.0" encoding="UTF-8"?>
<svg version="1.1" xmlns="http://www.w3.org/2000/svg" width="783" height="670">
<path d="M0 0 C0.69851074 0.22381348 1.39702148 0.44762695 2.11669922 0.67822266 C44.49516125 14.50155047 78.40060684 45.9076318 98.5 85.25 C105.98056948 100.28154745 112.77770208 116.47048258 116 133 C116.84530273 132.85925049 117.69060547 132.71850098 118.56152344 132.57348633 C127.18526841 131.2269905 135.51391759 130.64628373 144.25 130.6875 C146.14842651 130.69595947 146.14842651 130.69595947 148.08520508 130.70458984 C181.22308212 131.13184785 211.44058107 143.59245106 234.73095703 167.26220703 C254.72159378 188.26316288 264.83116797 215.95268671 264.18359375 244.80859375 C263.0011812 277.05687629 246.95247241 305.06763748 224 327 C224.83402344 327.67804688 225.66804687 328.35609375 226.52734375 329.0546875 C250.43114118 348.71082146 263.58098424 374.06197763 267 405 C267.31648891 410.66973223 267.3901769 416.3224606 267.375 422 C267.37418427 423.15202911 267.37418427 423.15202911 267.37335205 424.32733154 C267.25108537 461.98644705 253.53675886 494.41659331 226.9453125 521.05859375 C212.40663811 534.56770536 194.11849457 541.90681167 175 546 C174.98582031 546.65742187 174.97164062 547.31484375 174.95703125 547.9921875 C173.63224091 574.41638391 160.25763214 598.01646698 141.06640625 615.75390625 C91.30204902 660.26686516 13.12828825 661.76192287 -49.8331604 658.37109375 C-121.39300765 654.2531984 -188.67351788 638.24632337 -253 606 C-253.99547852 605.5035498 -254.99095703 605.00709961 -256.01660156 604.49560547 C-282.21267494 591.36335909 -306.7614374 575.41550233 -329.18554688 556.52197266 C-330.88653573 555.09517441 -332.60412142 553.69179526 -334.328125 552.29296875 C-342.06580752 545.9339379 -349.2145147 538.99463081 -356.3125 531.9375 C-357.69139404 530.57250366 -357.69139404 530.57250366 -359.09814453 529.17993164 C-365.15795265 523.09220571 -370.64395016 516.70917148 -376 510 C-376.8635968 508.97262523 -377.73200816 507.94923433 -378.609375 506.93359375 C-393.84841723 489.16398064 -406.47519362 469.33073238 -418 449 C-418.58523438 449.144375 -419.17046875 449.28875 -419.7734375 449.4375 C-436.98140653 453.15814195 -453.46867604 451.78200225 -468.890625 443.01953125 C-473.78040781 439.8436296 -477.91811721 436.14701922 -482 432 C-482.62390625 431.37480469 -483.2478125 430.74960937 -483.890625 430.10546875 C-513.19796487 398.75189569 -517.31692432 352.57240736 -516 312 C-513.32751772 260.05443264 -498.6574045 205.74506857 -476 159 C-475.6071582 158.1853125 -475.21431641 157.370625 -474.80957031 156.53125 C-467.79007673 142.16911479 -459.09954358 129.55295631 -448 118 C-447.10796875 117.04480469 -446.2159375 116.08960937 -445.296875 115.10546875 C-427.77442015 96.66610664 -404.24796145 82.22422645 -378.30859375 80.796875 C-364.67598077 80.63179795 -353.33070428 82.68316535 -341.328125 89.39453125 C-337.847331 91.45356569 -337.847331 91.45356569 -333.94799805 91.72241211 C-330.92569162 90.60159437 -328.79858474 88.43736519 -326.4375 86.3125 C-262.3602709 30.63127932 -171.52827757 -5.61777429 0 0 Z " fill="#FEFEFE" transform="translate(516,11)"/>
<path d="M0 0 C0.69851074 0.22381348 1.39702148 0.44762695 2.11669922 0.67822266 C44.49516125 14.50155047 78.40060684 45.9076318 98.5 85.25 C105.98056948 100.28154745 112.77770208 116.47048258 116 133 C116.84530273 132.85925049 117.69060547 132.71850098 118.56152344 132.57348633 C127.18526841 131.2269905 135.51391759 130.64628373 144.25 130.6875 C146.14842651 130.69595947 146.14842651 130.69595947 148.08520508 130.70458984 C181.22308212 131.13184785 211.44058107 143.59245106 234.73095703 167.26220703 C254.72159378 188.26316288 264.83116797 215.95268671 264.18359375 244.80859375 C263.0011812 277.05687629 246.95247241 305.06763748 224 327 C224.83402344 327.67804688 225.66804687 328.35609375 226.52734375 329.0546875 C250.43114118 348.71082146 263.58098424 374.06197763 267 405 C267.31648891 410.66973223 267.3901769 416.3224606 267.375 422 C267.37418427 423.15202911 267.37418427 423.15202911 267.37335205 424.32733154 C267.25108537 461.98644705 253.53675886 494.41659331 226.9453125 521.05859375 C212.40663811 534.56770536 194.11849457 541.90681167 175 546 C174.98582031 546.65742187 174.97164062 547.31484375 174.95703125 547.9921875 C173.63224091 574.41638391 160.25763214 598.01646698 141.06640625 615.75390625 C91.30204902 660.26686516 13.12828825 661.76192287 -49.8331604 658.37109375 C-121.39300765 654.2531984 -188.67351788 638.24632337 -253 606 C-253.99547852 605.5035498 -254.99095703 605.00709961 -256.01660156 604.49560547 C-282.21267494 591.36335909 -306.7614374 575.41550233 -329.18554688 556.52197266 C-330.88653573 555.09517441 -332.60412142 553.69179526 -334.328125 552.29296875 C-342.06580752 545.9339379 -349.2145147 538.99463081 -356.3125 531.9375 C-357.69139404 530.57250366 -357.69139404 530.57250366 -359.09814453 529.17993164 C-365.15795265 523.09220571 -370.64395016 516.70917148 -376 510 C-376.8635968 508.97262523 -377.73200816 507.94923433 -378.609375 506.93359375 C-393.84841723 489.16398064 -406.47519362 469.33073238 -418 449 C-418.58523438 449.144375 -419.17046875 449.28875 -419.7734375 449.4375 C-436.98140653 453.15814195 -453.46867604 451.78200225 -468.890625 443.01953125 C-473.78040781 439.8436296 -477.91811721 436.14701922 -482 432 C-482.62390625 431.37480469 -483.2478125 430.74960937 -483.890625 430.10546875 C-513.19796487 398.75189569 -517.31692432 352.57240736 -516 312 C-513.32751772 260.05443264 -498.6574045 205.74506857 -476 159 C-475.6071582 158.1853125 -475.21431641 157.370625 -474.80957031 156.53125 C-467.79007673 142.16911479 -459.09954358 129.55295631 -448 118 C-447.10796875 117.04480469 -446.2159375 116.08960937 -445.296875 115.10546875 C-427.77442015 96.66610664 -404.24796145 82.22422645 -378.30859375 80.796875 C-364.67598077 80.63179795 -353.33070428 82.68316535 -341.328125 89.39453125 C-337.847331 91.45356569 -337.847331 91.45356569 -333.94799805 91.72241211 C-330.92569162 90.60159437 -328.79858474 88.43736519 -326.4375 86.3125 C-262.3602709 30.63127932 -171.52827757 -5.61777429 0 0 Z M-129 24 C-130.10166504 24.22461914 -131.20333008 24.44923828 -132.33837891 24.68066406 C-170.04139606 32.55480079 -205.77169579 46.58735983 -240 64 C-240.99757324 64.50644043 -241.99514648 65.01288086 -243.02294922 65.53466797 C-262.41519813 75.48512245 -280.93421035 87.42674404 -298 101 C-298.92425781 101.73347656 -299.84851563 102.46695313 -300.80078125 103.22265625 C-307.06388173 108.27298485 -313.05594056 113.58096789 -319 119 C-320.728887 120.54198029 -322.45805194 122.08364901 -324.1875 123.625 C-331.892045 130.58549236 -338.50313184 137.89019408 -345 146 C-345.66 146.79277344 -346.32 147.58554688 -347 148.40234375 C-383.80701142 193.00116203 -400.40550798 258.84020918 -405.640625 315.62109375 C-406 319 -406 319 -406.48852539 320.89111328 C-409.38315023 332.82608673 -408.25376762 346.34401113 -408.29516602 358.52612305 C-408.30666088 360.87123663 -408.32707276 363.21632456 -408.35668945 365.5612793 C-409.01183923 417.66947708 -381.98751482 461.16930045 -347.25 498.56640625 C-345.36053949 500.61004149 -343.54658082 502.68804318 -341.75 504.8125 C-333.91262618 513.82268748 -325.21695978 522.40863415 -316 530 C-315.47277344 530.44102051 -314.94554687 530.88204102 -314.40234375 531.33642578 C-296.33154852 546.43607784 -277.40613581 559.23992839 -257 571 C-256.07703125 571.53512207 -255.1540625 572.07024414 -254.203125 572.62158203 C-224.68743843 589.61791397 -192.68089473 602.51012455 -160 612 C-159.28634277 612.20931152 -158.57268555 612.41862305 -157.83740234 612.63427734 C-112.01864783 625.88593153 -64.01285295 630.123197 -16.5 630.25 C-15.50272888 630.25526703 -14.50545776 630.26053406 -13.47796631 630.26596069 C5.06597143 630.34178979 23.64214291 629.47112234 41.9375 626.25 C42.91436768 626.08008545 43.89123535 625.9101709 44.89770508 625.73510742 C63.93070138 622.29958696 81.53114066 617.37066166 99 609 C100.07507813 608.49726562 101.15015625 607.99453125 102.2578125 607.4765625 C122.65474598 597.18889634 136.9399655 580.29447538 144.0546875 558.73828125 C144.79156018 555.82428473 145.25262252 553.23168404 145.55908203 550.26635742 C145.68550583 549.06398689 145.68550583 549.06398689 145.81448364 547.83732605 C145.90631424 546.92784966 145.90631424 546.92784966 146 546 C145.06755463 545.97907036 145.06755463 545.97907036 144.11627197 545.9577179 C113.82158497 545.25871831 83.85734433 544.48539114 54 539 C52.86933105 538.7947168 51.73866211 538.58943359 50.57373047 538.37792969 C37.63332415 535.95905259 25.43827952 532.2557377 13 528 C13.6335289 527.95432892 14.2670578 527.90865784 14.91978455 527.86160278 C21.65502256 527.37586373 28.39015907 526.88873389 35.12524414 526.40087891 C37.62196436 526.22020047 40.1187083 526.0398495 42.61547852 525.85986328 C46.25283363 525.59759276 49.89010064 525.33413147 53.52734375 525.0703125 C54.75114746 524.9820369 55.97495117 524.89376129 57.23583984 524.80281067 C62.8746616 524.39202026 68.51036653 523.96517061 74.14257812 523.47143555 C86.16576667 522.4237283 98.1690158 521.71834104 110.2265625 521.25390625 C110.97472544 521.22487465 111.72288837 521.19584305 112.49372292 521.1659317 C119.44020141 520.89781147 126.38701569 520.63967192 133.33447266 520.39819336 C137.18927726 520.26363613 141.04347827 520.11702117 144.89756393 519.9633007 C146.33636455 519.90820684 147.77534 519.85745828 149.21446609 519.81164742 C161.84707161 519.40796269 174.73372871 518.20415324 186.3125 512.75 C186.97781738 512.44626465 187.64313477 512.1425293 188.32861328 511.82958984 C194.01998688 509.15040232 199.11155425 505.97238266 204 502 C205.24330078 501.00033203 205.24330078 501.00033203 206.51171875 499.98046875 C223.73059858 485.34573934 235.07563302 462.38777382 238 440 C238.28653579 435.07133145 238.37166077 430.16198273 238.37060547 425.22583008 C238.37494619 422.96552222 238.41127763 420.70722577 238.44921875 418.44726562 C238.62076513 396.37366349 231.9887629 375.45824946 217 359 C210.03109316 351.92776505 202.3746087 348.75098719 193 346 C192.33097656 345.78601563 191.66195312 345.57203125 190.97265625 345.3515625 C182.65819692 343.86977767 172.7632672 346.19154754 164.38989258 347.2512207 C154.54473043 348.48111162 144.72558533 349.15907868 134.8046875 349.23828125 C133.7819574 349.2480751 132.75922729 349.25786896 131.70550537 349.26795959 C110.77406672 349.42742116 90.52642131 349.52155434 70 345 C68.08364207 344.60328902 66.16725867 344.2066933 64.25027466 343.8130188 C56.81659013 342.28423904 49.40282025 340.67187477 42 339 C43.23524414 338.87471924 44.47048828 338.74943848 45.74316406 338.62036133 C79.91759631 335.13835159 113.82719121 331.19236417 147.625 325 C148.9631073 324.757621 148.9631073 324.757621 150.32824707 324.51034546 C159.5838087 322.82235839 168.73735138 320.94006274 177.8125 318.4453125 C178.53079987 318.24856934 179.24909973 318.05182617 179.98916626 317.84912109 C199.79534427 312.1944691 214.00785348 298.81897658 224.22265625 281.28515625 C234.43914142 262.72380097 238.51437394 241.55955393 232.9777832 220.86010742 C229.38295026 208.96950614 223.40960033 198.14154702 215 189 C214.26265625 188.17113281 213.5253125 187.34226563 212.765625 186.48828125 C198.08750883 170.82682724 176.4189543 161.07743601 154.97412109 159.82299805 C136.84677842 159.3356193 136.84677842 159.3356193 119 162 C89.36675772 169.10925808 55.20976462 162.72236602 26 156 C24.86788086 155.74283203 24.86788086 155.74283203 23.71289062 155.48046875 C-14.72095981 146.56932152 -42.64830204 122.64514249 -69.75 95.25 C-79.85403915 84.92110817 -79.85403915 84.92110817 -90.55566406 75.22558594 C-92 74 -92 74 -94 72 C-93.22474976 72.50430542 -93.22474976 72.50430542 -92.43383789 73.01879883 C-91.70414795 73.49341553 -90.97445801 73.96803223 -90.22265625 74.45703125 C-89.40812988 74.98683594 -88.59360352 75.51664063 -87.75439453 76.0625 C-85.93677814 77.24413199 -84.11873363 78.42510564 -82.30029297 79.60546875 C-78.0799594 82.34504799 -73.86164043 85.08704894 -69.66015625 87.85546875 C-21.45532697 119.53359118 28.64837762 138.63532141 87 137 C85.66601144 130.09836446 83.58628616 123.91366609 80.875 117.4375 C80.47611572 116.47730957 80.07723145 115.51711914 79.66625977 114.52783203 C72.48461522 97.45631335 64.03093345 82.21432508 52 68 C51.26265625 67.11570313 50.5253125 66.23140625 49.765625 65.3203125 C25.87798215 37.76365261 -12.092013 21.90719201 -48 19 C-51.43865743 18.83374175 -54.87416737 18.76799459 -58.31640625 18.7265625 C-59.27847992 18.71403442 -60.24055359 18.70150635 -61.23178101 18.68859863 C-84.34030179 18.44636949 -106.35001902 19.2709176 -129 24 Z " fill="#010101" transform="translate(516,11)"/>
<path d="M0 0 C-1.37986632 4.16911483 -3.24838691 6.57323776 -6.3125 9.6875 C-17.23699212 21.41712087 -26.27284357 34.98190596 -34 49 C-34.49161621 49.89041992 -34.49161621 49.89041992 -34.99316406 50.79882812 C-44.25292838 67.84709332 -51.42345122 86.43924811 -57 105 C-57.36375732 106.1768335 -57.36375732 106.1768335 -57.73486328 107.37744141 C-74.64943785 162.55878992 -88.98586336 230.20633269 -77.43652344 287.79589844 C-76.96360138 290.18378454 -76.54372285 292.57725601 -76.1328125 294.9765625 C-75.44555898 298.98896352 -74.73140629 302.9954209 -74 307 C-79.06027097 309.53013548 -86.97451596 308.74380671 -92.3515625 307.421875 C-109.51345161 299.65311861 -117.54569076 280.47969405 -124 264 C-129.280526 249.80718028 -131.34096501 235.97375163 -131.20581055 220.85400391 C-131.18763771 218.76582387 -131.18530149 216.6780946 -131.18554688 214.58984375 C-131.14812352 198.93046673 -130.13669468 183.63008107 -127.5 168.1875 C-127.37161743 167.42564392 -127.24323486 166.66378784 -127.11096191 165.87884521 C-117.87713343 111.62415864 -102.01576848 43.63342737 -55 9.5625 C-38.57974675 -1.88317864 -19.38944359 -9.6947218 0 0 Z " fill="#FDFDFD" transform="translate(160,125)"/>
<path d="M0 0 C8.49337215 2.97771375 17.01419317 5.46674094 25.74243164 7.65673828 C30.78455914 8.92204181 35.80237013 10.24724352 40.80622864 11.65548706 C50.13720736 14.28120762 59.4940605 16.68916862 68.9375 18.875 C69.71256897 19.05598236 70.48763794 19.23696472 71.28619385 19.4234314 C83.58470423 22.27984288 95.94336507 24.79808719 108.3359375 27.20703125 C109.0729464 27.35056911 109.80995529 27.49410698 110.56929779 27.64199448 C118.03528395 29.09536976 125.50310576 30.5378442 132.97777367 31.94594288 C135.81131903 32.48163411 138.64319166 33.02583264 141.47481155 33.57159996 C143.4321746 33.94556544 145.39177005 34.30778685 147.35140991 34.66963196 C163.50104319 37.79172035 163.50104319 37.79172035 168.9375 43.5 C171.52203378 47.59217849 171.91303907 49.96109624 171.4375 54.875 C169.61273 59.16950182 167.43310599 62.16701351 163.625 64.875 C157.43797388 66.8160278 151.42201921 65.87231435 145.16821289 64.625 C144.14869537 64.42482018 144.14869537 64.42482018 143.10858154 64.22059631 C140.87417766 63.77970346 138.64219441 63.32770528 136.41015625 62.875 C134.81922236 62.55738531 133.22819132 62.24025689 131.6370697 61.92358398 C128.29145703 61.25591646 124.94699644 60.58281789 121.60327148 59.90576172 C117.42607603 59.06029863 113.24650638 58.22738657 109.06601334 57.39840508 C87.38036339 53.09187702 65.87679131 48.27619466 44.4375 42.875 C43.00162314 42.51445304 41.56572464 42.15399223 40.12980652 41.79360962 C38.68221541 41.42989027 37.23464912 41.06607213 35.78710938 40.70214844 C34.79936634 40.45385631 34.79936634 40.45385631 33.79166889 40.20054817 C21.90695486 37.20581243 10.12323641 34.02622167 -1.515625 30.17578125 C-4.19605015 29.29318663 -6.87800888 28.50240586 -9.609375 27.79296875 C-17.75438656 25.67222404 -22.76745896 24.06756156 -27.5625 16.875 C-28.31440286 12.33466349 -28.60669873 7.79049442 -26.359375 3.66796875 C-18.66343292 -5.56327491 -10.28087773 -3.77608908 0 0 Z " fill="#010101" transform="translate(185.5625,305.125)"/>
<path d="M0 0 C3.88098043 1.64491886 7.40334542 3.81225391 11 6 C13.59988135 7.54892551 16.20606226 9.08713795 18.8125 10.625 C19.52768799 11.04773193 20.24287598 11.47046387 20.97973633 11.90600586 C30.51883512 17.51937075 40.20115872 22.85410544 50 28 C50.83547363 28.43892578 51.67094727 28.87785156 52.53173828 29.33007812 C68.29628342 37.48791108 84.79972056 43.80708606 101.3503418 50.1628418 C102.27013824 50.51880432 103.18993469 50.87476685 104.13760376 51.24151611 C105.8731784 51.91262053 107.6110748 52.57776337 109.35165405 53.23577881 C115.37143604 55.56838752 121.70465386 58.09303601 125 64 C125.74252547 68.4769918 125.54587651 72.67840424 123.8125 76.875 C120.11956559 81.20464724 116.80774071 83.63624412 111.10546875 84.375 C105.14261162 84.27512487 99.69581517 81.30794238 94.3125 79 C91.88050078 77.98107253 89.44820684 76.96284823 87.015625 75.9453125 C85.82130859 75.44161133 84.62699219 74.93791016 83.39648438 74.41894531 C79.60955907 72.83688595 75.80077047 71.32051846 71.97973633 69.82324219 C53.25215965 62.47672084 35.52491522 53.87215403 18 44 C17.05817871 43.4740625 16.11635742 42.948125 15.14599609 42.40625 C-15.17769453 25.4669164 -15.17769453 25.4669164 -18 17 C-18.38981277 12.8679846 -18.27518905 10.53979391 -16.375 6.8125 C-11.81288783 1.40999875 -7.19609559 -1.6103151 0 0 Z " fill="#020202" transform="translate(170,368)"/>
<path d="M0 0 C18.11763295 3.04527905 36.2839807 5.15538668 54.625 6.25 C55.62452352 6.3097403 55.62452352 6.3097403 56.64423943 6.37068748 C62.80944294 6.73581192 68.97573867 7.08074257 75.14257812 7.41699219 C77.90317838 7.56811972 80.66326032 7.72588077 83.4230957 7.89038086 C85.9835252 8.04239005 88.54457185 8.18446197 91.10620117 8.31469727 C106.51811906 9.24709849 106.51811906 9.24709849 111.9453125 13.9140625 C114.65937212 18.52606591 115.50357017 21.82975215 114.515625 27.14453125 C113.39749424 31.09576361 112.02979292 33.41146535 108.67431641 35.79541016 C105.63088009 37.34346313 103.7908241 37.57394219 100.3984375 37.5859375 C99.28267334 37.59206055 98.16690918 37.59818359 97.01733398 37.60449219 C95.79473877 37.59063477 94.57214355 37.57677734 93.3125 37.5625 C92.01578369 37.55379883 90.71906738 37.54509766 89.38305664 37.53613281 C61.94427048 37.21509044 34.39525037 34.97885981 7.29589844 30.70361328 C3.73587263 30.15651423 0.17090727 29.66595038 -3.3984375 29.18359375 C-5.76571046 28.85217234 -8.13290127 28.52016348 -10.5 28.1875 C-11.57902588 28.04578369 -12.65805176 27.90406738 -13.76977539 27.75805664 C-19.55308663 26.91009785 -23.57410034 26.01691765 -28.0625 22.1875 C-31.36049116 17.46037934 -31.96629228 12.79101216 -31.0625 7.1875 C-24.6189429 -5.69961419 -11.94924834 -2.02967467 0 0 Z " fill="#020202" transform="translate(198.0625,225.8125)"/>
</svg>
