<?xml version="1.0" encoding="UTF-8"?>
<svg version="1.1" xmlns="http://www.w3.org/2000/svg" width="1070" height="764">
<path d="M0 0 C1.10763702 -0.00701431 2.21527405 -0.01402863 3.35647583 -0.02125549 C6.90175506 -0.03862868 10.4468673 -0.04510564 13.9921875 -0.046875 C15.20338257 -0.04754974 16.41457764 -0.04822449 17.66247559 -0.04891968 C34.92515889 -0.03361943 51.81554496 0.26615078 68.8671875 3.203125 C70.45442627 3.46053467 70.45442627 3.46053467 72.07373047 3.72314453 C112.99633438 10.45632991 153.10689498 25.12605261 183.64453125 54.09765625 C185.41886887 55.77844356 187.19896255 57.32059051 189.1171875 58.828125 C225.03795207 89.85060349 235.66271707 139.19455092 240.46582031 183.95532227 C240.81090016 186.7476563 241.26869701 189.4557161 241.8671875 192.203125 C277.73328542 198.44216096 313.76857878 202.73149221 349.9609375 206.55859375 C351.43602783 206.71461154 351.43602783 206.71461154 352.94091797 206.8737812 C354.95081337 207.08633437 356.96071126 207.298864 358.97061157 207.51137066 C438.30590958 215.89968162 438.30590958 215.89968162 469.8671875 221.203125 C471.14879761 221.41841858 471.14879761 221.41841858 472.45629883 221.63806152 C515.26971687 228.88817324 552.60649336 239.83674208 584.8671875 270.203125 C585.76824219 271.02490234 585.76824219 271.02490234 586.6875 271.86328125 C609.11430819 293.09051597 624.07079335 326.06261431 625.0859375 356.81640625 C625.55872981 379.38019613 621.80822483 399.93461439 607.8671875 418.203125 C607.05314453 419.29173828 607.05314453 419.29173828 606.22265625 420.40234375 C593.92745415 435.62924854 575.5181132 443.08591182 556.57080078 445.49511719 C540.60459881 447.0636104 525.05959509 443.45472157 509.47094727 440.47607422 C461.17947165 431.26908435 411.94256904 427.34999902 362.9921875 423.328125 C361.87469116 423.23562973 361.87469116 423.23562973 360.73461914 423.14126587 C353.77253868 422.57088542 346.85760379 422.04222028 339.8671875 422.203125 C340.52799316 422.5935498 341.18879883 422.98397461 341.86962891 423.38623047 C372.45386744 441.46421482 402.83334546 459.79240948 432.86035156 478.78662109 C445.50493774 486.77591982 458.22108311 494.64592368 471.0546875 502.328125 C471.87654541 502.82111084 472.69840332 503.31409668 473.54516602 503.82202148 C477.56524003 506.23215593 481.5914085 508.63088674 485.62890625 511.01171875 C520.90395131 531.95905344 545.86637366 561.93243633 557.1796875 601.765625 C557.77748422 604.2365181 558.33871229 606.71648318 558.8671875 609.203125 C559.01526855 609.89631836 559.16334961 610.58951172 559.31591797 611.30371094 C566.02447563 643.90051319 561.70407645 677.93420561 543.92578125 706.30078125 C532.51920528 722.68477219 516.44654416 734.61935209 496.69921875 738.6953125 C462.75952681 743.19292713 435.84059613 728.46619838 407.55883789 711.84301758 C385.0525218 698.65303387 361.98852194 686.44561571 338.91534424 674.28421021 C336.74994277 673.14123934 334.58658492 671.99445854 332.42333984 670.84741211 C320.60304536 664.58929396 308.70303138 658.50051956 296.7421875 652.515625 C295.79041626 652.03923584 294.83864502 651.56284668 293.85803223 651.07202148 C277.04315582 642.67053533 260.08629847 634.67523004 242.88720703 627.09436035 C240.77906572 626.16424555 238.67258753 625.23044251 236.56640625 624.29589844 C232.25309656 622.38291813 227.93607087 620.47848436 223.6171875 618.578125 C222.63413635 618.1447583 222.63413635 618.1447583 221.63122559 617.70263672 C217.39026748 615.83641078 213.13318135 614.01161268 208.8671875 612.203125 C207.68060547 611.68266602 206.49402344 611.16220703 205.27148438 610.62597656 C204.13259766 610.14870117 202.99371094 609.67142578 201.8203125 609.1796875 C200.81645508 608.74994629 199.81259766 608.32020508 198.77832031 607.87744141 C194.20279221 606.817595 191.16000035 608.46165881 187.2109375 610.7265625 C186.2725 611.33757813 185.3340625 611.94859375 184.3671875 612.578125 C132.26946676 645.48722558 71.05613792 665.758641 9.2421875 665.515625 C8.27674011 665.51380219 7.31129272 665.51197937 6.31658936 665.51010132 C-8.35622074 665.46353108 -22.68685404 665.00769147 -37.1328125 662.203125 C-38.05030273 662.02620117 -38.96779297 661.84927734 -39.91308594 661.66699219 C-46.3734534 660.37936645 -52.75980807 658.86767994 -59.1328125 657.203125 C-59.94073242 656.99349121 -60.74865234 656.78385742 -61.58105469 656.56787109 C-120.3571435 640.95434566 -176.85993152 608.34634758 -223.1328125 569.203125 C-224.13054687 568.378125 -225.12828125 567.553125 -226.15625 566.703125 C-237.85843525 556.99040078 -248.85625767 546.55188439 -259.6328125 535.828125 C-260.27903564 535.18657471 -260.92525879 534.54502441 -261.59106445 533.8840332 C-265.97270839 529.48763817 -270.10563558 524.92531843 -274.1328125 520.203125 C-274.67776367 519.56487793 -275.22271484 518.92663086 -275.78417969 518.26904297 C-310.17986838 477.66900376 -338.83173516 428.38287 -351.1328125 376.203125 C-352.04160156 376.17734375 -352.95039063 376.1515625 -353.88671875 376.125 C-371.83591864 375.31498483 -387.21867693 370.7611588 -400.49609375 358.08984375 C-422.03055596 334.51359549 -426.21286109 298.83501746 -425.28076172 268.26123047 C-423.41531044 229.70241418 -406.9602751 190.04152011 -389.23583984 156.31933594 C-387.94668899 153.84603811 -386.69069631 151.35692347 -385.43359375 148.8671875 C-371.81240253 122.07756196 -355.68409537 95.62023012 -335.19921875 73.4609375 C-333.35388762 71.44467778 -331.62009327 69.37426554 -329.8828125 67.265625 C-321.22506848 57.39380653 -310.38259725 49.81813269 -299.1328125 43.203125 C-298.23973389 42.67525391 -298.23973389 42.67525391 -297.32861328 42.13671875 C-275.35900226 29.3363649 -248.94730922 21.62238673 -223.6328125 27.828125 C-211.64140597 31.09364196 -200.75123311 36.98020882 -192.3203125 46.203125 C-191.5984375 46.863125 -190.8765625 47.523125 -190.1328125 48.203125 C-186.85649118 47.79653904 -184.11068493 46.30511293 -181.1875 44.83203125 C-125.6879448 17.28058033 -62.21892851 0.26594493 0 0 Z " fill="#FEFEFE" transform="translate(436.1328125,8.796875)"/>
<path d="M0 0 C1.10763702 -0.00701431 2.21527405 -0.01402863 3.35647583 -0.02125549 C6.90175506 -0.03862868 10.4468673 -0.04510564 13.9921875 -0.046875 C15.20338257 -0.04754974 16.41457764 -0.04822449 17.66247559 -0.04891968 C34.92515889 -0.03361943 51.81554496 0.26615078 68.8671875 3.203125 C70.45442627 3.46053467 70.45442627 3.46053467 72.07373047 3.72314453 C112.99633438 10.45632991 153.10689498 25.12605261 183.64453125 54.09765625 C185.41886887 55.77844356 187.19896255 57.32059051 189.1171875 58.828125 C225.03795207 89.85060349 235.66271707 139.19455092 240.46582031 183.95532227 C240.81090016 186.7476563 241.26869701 189.4557161 241.8671875 192.203125 C277.73328542 198.44216096 313.76857878 202.73149221 349.9609375 206.55859375 C351.43602783 206.71461154 351.43602783 206.71461154 352.94091797 206.8737812 C354.95081337 207.08633437 356.96071126 207.298864 358.97061157 207.51137066 C438.30590958 215.89968162 438.30590958 215.89968162 469.8671875 221.203125 C471.14879761 221.41841858 471.14879761 221.41841858 472.45629883 221.63806152 C515.26971687 228.88817324 552.60649336 239.83674208 584.8671875 270.203125 C585.76824219 271.02490234 585.76824219 271.02490234 586.6875 271.86328125 C609.11430819 293.09051597 624.07079335 326.06261431 625.0859375 356.81640625 C625.55872981 379.38019613 621.80822483 399.93461439 607.8671875 418.203125 C607.05314453 419.29173828 607.05314453 419.29173828 606.22265625 420.40234375 C593.92745415 435.62924854 575.5181132 443.08591182 556.57080078 445.49511719 C540.60459881 447.0636104 525.05959509 443.45472157 509.47094727 440.47607422 C461.17947165 431.26908435 411.94256904 427.34999902 362.9921875 423.328125 C361.87469116 423.23562973 361.87469116 423.23562973 360.73461914 423.14126587 C353.77253868 422.57088542 346.85760379 422.04222028 339.8671875 422.203125 C340.52799316 422.5935498 341.18879883 422.98397461 341.86962891 423.38623047 C372.45386744 441.46421482 402.83334546 459.79240948 432.86035156 478.78662109 C445.50493774 486.77591982 458.22108311 494.64592368 471.0546875 502.328125 C471.87654541 502.82111084 472.69840332 503.31409668 473.54516602 503.82202148 C477.56524003 506.23215593 481.5914085 508.63088674 485.62890625 511.01171875 C520.90395131 531.95905344 545.86637366 561.93243633 557.1796875 601.765625 C557.77748422 604.2365181 558.33871229 606.71648318 558.8671875 609.203125 C559.01526855 609.89631836 559.16334961 610.58951172 559.31591797 611.30371094 C566.02447563 643.90051319 561.70407645 677.93420561 543.92578125 706.30078125 C532.51920528 722.68477219 516.44654416 734.61935209 496.69921875 738.6953125 C462.75952681 743.19292713 435.84059613 728.46619838 407.55883789 711.84301758 C385.0525218 698.65303387 361.98852194 686.44561571 338.91534424 674.28421021 C336.74994277 673.14123934 334.58658492 671.99445854 332.42333984 670.84741211 C320.60304536 664.58929396 308.70303138 658.50051956 296.7421875 652.515625 C295.79041626 652.03923584 294.83864502 651.56284668 293.85803223 651.07202148 C277.04315582 642.67053533 260.08629847 634.67523004 242.88720703 627.09436035 C240.77906572 626.16424555 238.67258753 625.23044251 236.56640625 624.29589844 C232.25309656 622.38291813 227.93607087 620.47848436 223.6171875 618.578125 C222.63413635 618.1447583 222.63413635 618.1447583 221.63122559 617.70263672 C217.39026748 615.83641078 213.13318135 614.01161268 208.8671875 612.203125 C207.68060547 611.68266602 206.49402344 611.16220703 205.27148438 610.62597656 C204.13259766 610.14870117 202.99371094 609.67142578 201.8203125 609.1796875 C200.81645508 608.74994629 199.81259766 608.32020508 198.77832031 607.87744141 C194.20279221 606.817595 191.16000035 608.46165881 187.2109375 610.7265625 C186.2725 611.33757813 185.3340625 611.94859375 184.3671875 612.578125 C132.26946676 645.48722558 71.05613792 665.758641 9.2421875 665.515625 C8.27674011 665.51380219 7.31129272 665.51197937 6.31658936 665.51010132 C-8.35622074 665.46353108 -22.68685404 665.00769147 -37.1328125 662.203125 C-38.05030273 662.02620117 -38.96779297 661.84927734 -39.91308594 661.66699219 C-46.3734534 660.37936645 -52.75980807 658.86767994 -59.1328125 657.203125 C-59.94073242 656.99349121 -60.74865234 656.78385742 -61.58105469 656.56787109 C-120.3571435 640.95434566 -176.85993152 608.34634758 -223.1328125 569.203125 C-224.13054687 568.378125 -225.12828125 567.553125 -226.15625 566.703125 C-237.85843525 556.99040078 -248.85625767 546.55188439 -259.6328125 535.828125 C-260.27903564 535.18657471 -260.92525879 534.54502441 -261.59106445 533.8840332 C-265.97270839 529.48763817 -270.10563558 524.92531843 -274.1328125 520.203125 C-274.67776367 519.56487793 -275.22271484 518.92663086 -275.78417969 518.26904297 C-310.17986838 477.66900376 -338.83173516 428.38287 -351.1328125 376.203125 C-352.04160156 376.17734375 -352.95039063 376.1515625 -353.88671875 376.125 C-371.83591864 375.31498483 -387.21867693 370.7611588 -400.49609375 358.08984375 C-422.03055596 334.51359549 -426.21286109 298.83501746 -425.28076172 268.26123047 C-423.41531044 229.70241418 -406.9602751 190.04152011 -389.23583984 156.31933594 C-387.94668899 153.84603811 -386.69069631 151.35692347 -385.43359375 148.8671875 C-371.81240253 122.07756196 -355.68409537 95.62023012 -335.19921875 73.4609375 C-333.35388762 71.44467778 -331.62009327 69.37426554 -329.8828125 67.265625 C-321.22506848 57.39380653 -310.38259725 49.81813269 -299.1328125 43.203125 C-298.23973389 42.67525391 -298.23973389 42.67525391 -297.32861328 42.13671875 C-275.35900226 29.3363649 -248.94730922 21.62238673 -223.6328125 27.828125 C-211.64140597 31.09364196 -200.75123311 36.98020882 -192.3203125 46.203125 C-191.5984375 46.863125 -190.8765625 47.523125 -190.1328125 48.203125 C-186.85649118 47.79653904 -184.11068493 46.30511293 -181.1875 44.83203125 C-125.6879448 17.28058033 -62.21892851 0.26594493 0 0 Z M-49.1328125 33.203125 C-50.14069824 33.37392578 -51.14858398 33.54472656 -52.18701172 33.72070312 C-57.41827869 34.61583688 -62.61787773 35.61319111 -67.80908203 36.71630859 C-70.1301125 37.20255936 -72.4556661 37.65387394 -74.78515625 38.09765625 C-104.49132803 43.86493695 -133.97866482 53.87664802 -161.1328125 67.203125 C-162.04337402 67.64881836 -162.95393555 68.09451172 -163.89208984 68.55371094 C-187.88523094 80.41795889 -209.77060627 94.66739092 -229.1328125 113.203125 C-229.97030029 113.99178955 -229.97030029 113.99178955 -230.82470703 114.79638672 C-279.80547856 161.07043406 -315.21727062 242.24865363 -326.1328125 308.203125 C-326.33648437 309.28851563 -326.54015625 310.37390625 -326.75 311.4921875 C-330.02064355 331.34006546 -329.3034711 351.07563183 -323.1328125 370.203125 C-322.61966828 371.87626425 -322.10664968 373.54944202 -321.59375 375.22265625 C-303.47745754 432.85295461 -272.35178407 481.92728151 -229.9453125 524.515625 C-228.82274048 525.6452063 -228.82274048 525.6452063 -227.67749023 526.79760742 C-222.99133834 531.47031565 -218.17634457 535.91943049 -213.1328125 540.203125 C-212.18571411 541.01027954 -212.18571411 541.01027954 -211.21948242 541.83374023 C-151.38659795 592.4545379 -73.53885191 637.17024303 6.8671875 636.640625 C8.32754929 636.63656143 8.32754929 636.63656143 9.81741333 636.63241577 C26.47528513 636.56252546 42.48465885 635.3870179 58.8671875 632.203125 C59.84010742 632.02120605 60.81302734 631.83928711 61.81542969 631.65185547 C89.63883236 626.32973793 115.87258307 615.48150638 141.3671875 603.390625 C142.3044165 602.94678467 143.24164551 602.50294434 144.20727539 602.0456543 C149.66758745 599.40887292 154.78423021 596.51061006 159.8671875 593.203125 C157.68909488 591.02503238 156.38239475 590.52669099 153.50830078 589.53344727 C152.593293 589.21384033 151.67828522 588.8942334 150.73554993 588.56494141 C149.72969345 588.21995605 148.72383698 587.8749707 147.6875 587.51953125 C146.1042115 586.96809448 146.1042115 586.96809448 144.48893738 586.40551758 C142.19473001 585.60667424 139.89968373 584.81023707 137.60391235 584.01589966 C131.47463208 581.89412014 125.35229335 579.75255531 119.23046875 577.609375 C118.60055967 577.3889963 117.9706506 577.16861759 117.32165337 576.94156075 C103.22858577 572.0083576 89.19763332 566.90823382 75.1796875 561.765625 C74.07844543 561.36175568 72.97720337 560.95788635 71.84259033 560.54177856 C66.90496155 558.73030215 61.96817212 556.91657423 57.0324707 555.09985352 C51.64925569 553.119921 46.25889002 551.15980852 40.8671875 549.203125 C77.74936964 548.74526751 112.95584054 552.12445581 148.81494141 561.42041016 C151.87142549 562.20421178 154.93600066 562.94591539 158.00390625 563.68359375 C233.93613425 582.43683166 309.06393768 623.92683328 377.02148438 661.62792969 C380.2306836 663.40433269 383.44707108 665.16745689 386.6640625 666.9296875 C401.32544157 674.96924191 415.89418785 683.15787789 430.39453125 691.484375 C431.44608398 692.08749512 432.49763672 692.69061523 433.58105469 693.31201172 C435.90837617 694.65134546 438.23157468 695.99658669 440.55175781 697.34814453 C441.78579261 698.06285087 443.01984175 698.77753245 444.25390625 699.4921875 C445.35565186 700.13365723 446.45739746 700.77512695 447.5925293 701.43603516 C458.19419372 707.15696613 469.20499204 710.60051354 481.2421875 710.515625 C482.07927246 710.50998535 482.91635742 710.5043457 483.77880859 710.49853516 C496.2962897 710.25261693 504.95591106 705.99941406 514.0546875 697.453125 C530.8069371 679.90314923 533.31543688 655.46745055 533.08203125 632.42578125 C532.90379149 625.04931225 531.8984721 618.32081177 529.8671875 611.203125 C529.35671875 609.38361328 529.35671875 609.38361328 528.8359375 607.52734375 C523.09587581 588.85275116 513.39292439 572.31086434 499.8671875 558.203125 C499.16980469 557.44257812 498.47242188 556.68203125 497.75390625 555.8984375 C487.44001044 545.00002474 474.33090281 538.02362232 461.51416016 530.4987793 C449.82092844 523.62845055 438.32868371 516.4529778 426.8671875 509.203125 C426.02752441 508.67235352 425.18786133 508.14158203 424.32275391 507.59472656 C421.17093789 505.60217741 418.01931587 503.60932208 414.86816406 501.61572266 C372.90465119 475.09797636 330.22217711 449.68746409 286.71630859 425.78173828 C284.32091795 424.45452355 281.94356259 423.10335415 279.57421875 421.73046875 C258.82858255 409.84202541 235.5705237 406.55453052 212.34191895 402.62493896 C209.12562992 402.07672771 205.91243464 401.51155756 202.69914246 400.9460907 C187.39325876 398.25791121 172.12936651 395.82694686 156.66210938 394.25170898 C144.00966272 392.9587653 131.44445688 391.07975165 118.8671875 389.203125 C123.44775698 388.51974933 128.02948682 387.84488937 132.61230469 387.17675781 C134.15982067 386.95005974 135.70704073 386.72132914 137.25390625 386.49023438 C157.61518435 383.45203319 177.77522433 381.8160507 198.3671875 381.890625 C199.37144775 381.89178314 200.37570801 381.89294128 201.41040039 381.89413452 C225.96429832 381.94949926 250.35864446 383.52291788 274.6628418 387.07519531 C286.54903656 388.72148863 298.55438964 389.33769057 310.52246094 390.11328125 C311.39704453 390.17116318 312.27162811 390.2290451 313.17271423 390.28868103 C314.78539382 390.39482686 316.3982998 390.49763569 318.01148987 390.59571838 C323.5133411 390.95726788 328.97644534 391.53912217 334.45288086 392.16650391 C342.44030674 393.07769154 350.42773857 393.7824563 358.44462395 394.37356949 C361.53022089 394.60142536 364.61518513 394.83741711 367.70023251 395.07257843 C370.16090986 395.25999695 372.62166575 395.44635949 375.08242798 395.63265991 C404.71458503 397.88175749 434.28084011 400.37233381 463.78717041 403.95178223 C465.72920711 404.18645188 467.67195331 404.41522907 469.61474609 404.64355469 C485.67047859 406.53466176 501.54314494 409.22016864 517.359375 412.5703125 C539.46673236 417.18327773 559.12544631 419.6634211 578.94140625 406.86328125 C588.56516005 399.40216875 593.96756439 386.99485954 595.8671875 375.203125 C598.6072545 346.93196436 590.10868592 321.66030787 572.4921875 299.515625 C547.0146593 269.56759355 513.99142797 258.10779452 476.28198242 251.98339844 C472.43033626 251.33467275 468.61578943 250.5323477 464.79150391 249.73925781 C457.26825092 248.20509629 449.72249497 247.17189683 442.09765625 246.265625 C440.72400678 246.09821587 439.35041704 245.93031592 437.97688293 245.76196289 C434.39225992 245.32400805 430.80683452 244.89301225 427.22119141 244.46350098 C423.65536447 244.03495078 420.09043864 243.59903556 416.52539062 243.1640625 C394.08645477 240.43158859 371.64048138 237.75632018 349.15438843 235.43920898 C333.37780328 233.81075604 317.61655104 232.07789 301.8671875 230.203125 C300.4972481 230.04137655 299.12729283 229.87976257 297.75732422 229.71826172 C294.06461155 229.28262425 290.37234065 228.84338804 286.68032837 228.40185547 C285.24860481 228.23092963 283.81678442 228.06081255 282.38485718 227.89160156 C274.84002069 226.9984217 267.33103259 226.0085451 259.84375 224.71020508 C256.64202911 224.16476755 253.43452876 223.67723166 250.22265625 223.1953125 C217.03823293 218.09500085 184.30517831 209.64249204 153.8671875 195.203125 C153.23232422 194.91147461 152.59746094 194.61982422 151.94335938 194.31933594 C111.75311391 175.82064798 88.84083591 145.19723981 66.33203125 108.44140625 C65.7601709 107.5095752 65.18831055 106.57774414 64.59912109 105.61767578 C63.52489966 103.86291511 62.45578878 102.10501024 61.39306641 100.34326172 C57.91476513 94.64787093 54.06568756 89.38923296 49.8671875 84.203125 C54.74662326 87.8675234 58.94903336 92.13745432 63.2421875 96.453125 C64.33660156 97.54173828 64.33660156 97.54173828 65.453125 98.65234375 C69.56979838 102.77636833 73.49934327 106.99957471 77.30371094 111.41259766 C82.58617542 117.4621908 88.46482043 123.03908161 94.57421875 128.24609375 C96.36185393 129.77182667 98.12391526 131.31631749 99.87890625 132.87890625 C113.98996517 145.34971942 129.12737716 155.58794133 145.8671875 164.203125 C146.60630371 164.5856543 147.34541992 164.96818359 148.10693359 165.36230469 C168.03610187 175.55054369 188.98482044 182.62416491 210.8671875 187.203125 C211.31272089 162.89680363 205.72082976 137.93904711 194.8671875 116.203125 C194.56055176 115.56971191 194.25391602 114.93629883 193.93798828 114.28369141 C185.0586816 96.03255041 172.03940877 80.49315522 155.8671875 68.203125 C154.85398437 67.41292969 153.84078125 66.62273437 152.796875 65.80859375 C118.73451277 39.89882883 73.11212242 29.24099538 30.92578125 28.96484375 C29.69662994 28.95514053 28.46747864 28.94543732 27.20108032 28.93544006 C23.23560841 28.91056314 19.27022196 28.89726832 15.3046875 28.890625 C14.63110577 28.88917984 13.95752403 28.88773468 13.26353073 28.88624573 C-7.79843255 28.8496822 -28.34734344 29.51728327 -49.1328125 33.203125 Z " fill="#040404" transform="translate(436.1328125,8.796875)"/>
<path d="M0 0 C1.36125 1.11375 1.36125 1.11375 2.75 2.25 C1.41083351 6.26749947 -0.47212336 6.95434822 -4 9.25 C-11.21739133 14.07759952 -17.751706 19.50374002 -24.25 25.25 C-25.02174561 25.92699951 -25.02174561 25.92699951 -25.80908203 26.61767578 C-51.98470341 49.66983361 -69.57722816 78.96557941 -86.25 109.25 C-86.68521973 110.03246094 -87.12043945 110.81492187 -87.56884766 111.62109375 C-108.12226456 148.70359622 -123.70536787 189.13863691 -133.125 230.4375 C-133.41149414 231.68966309 -133.69798828 232.94182617 -133.99316406 234.23193359 C-136.83705994 247.14924406 -138.47372532 259.97051535 -138.875 273.1875 C-138.91367188 274.26451172 -138.95234375 275.34152344 -138.9921875 276.45117188 C-139.08461276 279.0506324 -139.17054028 281.65011666 -139.25 284.25 C-148.02430473 284.62861078 -154.55553222 282.16774675 -161.3984375 276.45703125 C-166.11875239 271.45844453 -168.76099714 265.5918429 -171.25 259.25 C-171.99443359 257.44402344 -171.99443359 257.44402344 -172.75390625 255.6015625 C-188.5665616 212.9324925 -172.18212886 164.30294864 -154.41943359 125.19482422 C-140.30041101 94.45661036 -123.70871979 64.52598342 -102.25 38.25 C-101.78384277 37.67701172 -101.31768555 37.10402344 -100.83740234 36.51367188 C-79.71944242 10.71288262 -34.13308234 -23.86595996 0 0 Z " fill="#FDFDFD" transform="translate(218.25,70.75)"/>
<path d="M0 0 C4.22966912 1.57459645 8.0927768 3.76347209 12 6 C12.72703125 6.41330566 13.4540625 6.82661133 14.203125 7.25244141 C17.6324254 9.20453704 21.05725923 11.16427479 24.47827148 13.13085938 C55.41299587 30.89572857 87.30920108 46.4729283 119.8494873 61.03729248 C125.86522205 63.73032149 131.87737376 66.43116429 137.88430786 69.14376831 C140.00140246 70.09747679 142.12152892 71.04417967 144.24194336 71.99047852 C163.64376869 80.7070663 163.64376869 80.7070663 167 87 C167.81146691 92.03785704 167.57137166 95.83609476 165.3125 100.4375 C162.27277909 103.80583938 160.31970525 105.71298063 155.69140625 106.28564453 C147.94012481 106.56548942 142.83203475 104.59553629 136.0625 101 C133.84262631 99.87729367 131.61978864 98.76043492 129.39453125 97.6484375 C128.80578217 97.3523056 128.21703308 97.05617371 127.61044312 96.75106812 C121.00693487 93.45356122 114.24341343 90.53738471 107.47634888 87.59509277 C78.27057072 74.86918327 49.17212815 61.2020485 21.48388672 45.41259766 C18.63555884 43.79274066 15.77338642 42.19882934 12.91015625 40.60546875 C10.83551317 39.44607149 8.76128502 38.28593137 6.6875 37.125 C5.28008545 36.33887329 5.28008545 36.33887329 3.84423828 35.53686523 C-15.45386859 24.63839424 -15.45386859 24.63839424 -18 17 C-18.37275294 11.9678353 -18.1569119 8.99875508 -15 5 C-10.36047883 0.02908446 -6.75328972 -1.42008429 0 0 Z " fill="#020202" transform="translate(193,248)"/>
<path d="M0 0 C1.22976562 -0.04253906 1.22976562 -0.04253906 2.484375 -0.0859375 C10.81271518 1.3021192 16.10016821 7.89602423 21.6875 13.6875 C27.35476115 19.50854158 33.07774845 25.09233258 39.25 30.375 C40.7948126 31.7882355 42.33695325 33.20440409 43.875 34.625 C59.8343713 48.9835833 77.75670033 61.15015721 95.55078125 73.08691406 C112.22479659 84.32830828 112.22479659 84.32830828 114.25 89.375 C114.97438038 93.93185796 114.73590609 98.10734679 112.625 102.25 C109.61002813 106.21706825 107.24408862 107.90759032 102.27636719 108.68310547 C95.37160687 109.0705064 91.58829621 106.61932188 86.1875 102.5625 C84.50930664 101.35650354 82.83091826 100.1507784 81.15234375 98.9453125 C80.32460449 98.33977539 79.49686523 97.73423828 78.64404297 97.11035156 C75.85992715 95.09225088 73.02611915 93.15959422 70.17529297 91.23754883 C52.65653795 79.40805727 36.15427861 66.6460765 20.51953125 52.42578125 C18.41347582 50.52271912 16.27679531 48.66346179 14.125 46.8125 C10.67094042 43.80927149 7.46467365 40.61110906 4.2578125 37.34765625 C2.28164838 35.40609423 0.23553685 33.60605508 -1.875 31.8125 C-12.35859197 22.79702446 -12.35859197 22.79702446 -13.0234375 16.984375 C-13.3313768 8.31469925 -13.3313768 8.31469925 -10.4375 4.8125 C-6.86068601 1.56841289 -4.79676061 0.07448386 0 0 Z " fill="#020202" transform="translate(167.75,310.625)"/>
<path d="M0 0 C4.5534705 1.5612909 8.98771131 3.4201673 13.42086792 5.29165649 C17.62280832 7.06227102 21.85220863 8.76481846 26.08050537 10.47131348 C26.92778702 10.81458176 27.77506866 11.15785004 28.64802551 11.51152039 C46.85708547 18.84131371 65.6721517 24.51949938 84.57513428 29.75744629 C89.01922685 30.99680688 93.45040073 32.2777647 97.87738037 33.57678223 C99.08708496 33.92144531 99.08708496 33.92144531 100.32122803 34.27307129 C106.74276797 36.16865919 112.98274548 38.16143385 117.56488037 43.20178223 C119.97396739 48.42147078 119.8369586 52.33872603 117.87738037 57.70178223 C115.25050004 61.68739377 112.59546445 63.94158753 108.06488037 65.45178223 C102.12673966 65.88715576 97.39640581 64.5971566 91.82659912 62.80334473 C90.03955162 62.24695864 88.25227362 61.69131245 86.46478271 61.13635254 C85.56306335 60.8534436 84.66134399 60.57053467 83.7322998 60.27905273 C79.67719228 59.02140618 75.59994677 57.84339764 71.52191162 56.66271973 C50.04706447 50.38528015 28.95037919 43.47641863 8.06488037 35.45178223 C6.92115967 35.01672363 5.77743896 34.58166504 4.59906006 34.13342285 C1.49642602 32.94612 -1.59630806 31.73703455 -4.68511963 30.51428223 C-6.00697266 30.00248413 -6.00697266 30.00248413 -7.35552979 29.48034668 C-12.96190467 27.19682922 -16.87882395 24.6804172 -20.21636963 19.44006348 C-21.65050535 15.47280758 -21.68216689 11.57953491 -20.93511963 7.45178223 C-16.09371861 -0.80533118 -9.1360444 -2.58823374 0 0 Z " fill="#020202" transform="translate(222.93511962890625,174.5482177734375)"/>
<path d="M0 0 C0.66 0.33 1.32 0.66 2 1 C-4.6 7.6 -11.2 14.2 -18 21 C-18.66 20.67 -19.32 20.34 -20 20 C-17.98406752 17.78702148 -15.96250115 15.57965623 -13.9375 13.375 C-13.37611328 12.75753906 -12.81472656 12.14007813 -12.23632812 11.50390625 C-8.39290663 7.33104863 -4.3703098 3.61872786 0 0 Z " fill="#474747" transform="translate(119,64)"/>
</svg>
